# xmcd
#
# Track frame offsets:
#	150
#	20290
#	52155
#	71722
#	88880
#	102082
#	125450
#	147110
#	164567
#	196330
#	216392
#	237522
#
# Disc length: 3500 seconds
#
# Revision: 0
# Processed by: cddbd v1.4PL0 Copyright (c) Steve Scherf et al.
# Submitted via: EasyCDDAExtractor 5.0.4.1
#
DISCID=b50daa0c
DTITLE=The Alligators - Gimme Some Skin
DYEAR=1996
DGENRE=Blues
TTITLE0=20% Alcohol
TTITLE1=Maggie Campbell
TTITLE2=See Ya Later Alligator
TTITLE3=Too Fat For Rock and Roll
TTITLE4=Gimme Some Skin
TTITLE5=Pocket Full Of Skin
TTITLE6=Bad Man, Good Girl
TTITLE7=1-900
TTITLE8=Whisky, Whisky
TTITLE9=You A Bad One
TTITLE10=Heart Attack Woman
TTITLE11=Two Finger Handshake
EXTD=
EXTT0=
EXTT1=
EXTT2=
EXTT3=
EXTT4=
EXTT5=
EXTT6=
EXTT7=
EXTT8=
EXTT9=
EXTT10=
EXTT11=
PLAYORDER=
